<?xml version="1.0" encoding="utf-8"?>
<!-- Generator: Adobe Illustrator 16.0.4, SVG Export Plug-In . SVG Version: 6.00 Build 0)  -->
<!DOCTYPE svg PUBLIC "-//W3C//DTD SVG 1.0//EN" "http://www.w3.org/TR/2001/REC-SVG-20010904/DTD/svg10.dtd">
<svg version="1.0" id="Layer_1" xmlns="http://www.w3.org/2000/svg" xmlns:xlink="http://www.w3.org/1999/xlink" x="0px" y="0px"
	 width="436.711px" height="73.333px" viewBox="0 0 436.711 73.333" enable-background="new 0 0 436.711 73.333"
	 xml:space="preserve">
<g>
	<path fill="#E57912" d="M10,10v53.333h65V10H10z M38.396,52.443l-3.648-4.944c-2.353-3.072-4.513-5.329-6.721-5.376h-0.384v10.321
		h-4.224V34.25c0-1.873-0.144-4.177-0.528-5.041h4.081c0.384,0.528,0.672,2.016,0.672,3.936v6.385h0.192
		c4.176-3.937,7.44-7.537,10.177-10.321h4.944v0.192c-3.264,3.024-6.96,6.625-11.041,10.465v0.144
		c2.304,0.528,4.8,3.504,7.153,6.625l4.224,5.809H38.396z M61.052,52.443l-4.705-13.297c-0.528-1.584-1.056-3.168-1.536-5.04h-0.24
		c-0.336,1.536-0.96,3.312-1.488,4.896l-4.752,13.441h-4.417l8.401-21.506c0.192-0.528,0.288-0.864,0.288-1.104
		c0-0.288-0.096-0.72-0.336-1.296c-1.488-4.08-3.216-7.296-6.049-7.296c-0.24,0-0.528,0-0.816,0.048l0.384-3.264
		c0.384-0.144,1.056-0.192,1.632-0.192c4.561,0,6.721,4.368,9.217,10.993l8.881,23.618H61.052z"/>
	<path fill="#878787" d="M84.042,18.891h5.664v16.368l15.359-16.368h7.2L98.777,33.579l13.681,18.864h-6.721L94.601,37.755
		l-4.896,5.28v9.408h-5.664V18.891z"/>
	<path fill="#878787" d="M137.322,52.443h-4.896v-3.408c-2.111,2.528-4.943,3.792-8.496,3.792c-2.656,0-4.855-0.751-6.6-2.256
		c-1.744-1.504-2.616-3.511-2.616-6.024c0-2.512,0.928-4.392,2.784-5.64c1.855-1.248,4.368-1.872,7.536-1.872h6.96v-0.96
		c0-3.391-1.889-5.088-5.664-5.088c-2.368,0-4.832,0.864-7.392,2.592l-2.4-3.36c3.104-2.464,6.624-3.696,10.56-3.696
		c3.008,0,5.464,0.76,7.368,2.28c1.903,1.521,2.856,3.912,2.856,7.176V52.443z M131.946,42.939v-2.16h-6.048
		c-3.873,0-5.809,1.217-5.809,3.648c0,1.248,0.48,2.201,1.44,2.856c0.96,0.656,2.296,0.984,4.008,0.984s3.208-0.48,4.488-1.44
		C131.305,45.867,131.946,44.571,131.946,42.939z"/>
	<path fill="#878787" d="M158.49,26.523c3.424,0,6.352,1.184,8.783,3.552c2.432,2.369,3.648,5.52,3.648,9.456
		s-1.208,7.136-3.624,9.6c-2.416,2.464-5.232,3.696-8.448,3.696s-6.104-1.408-8.664-4.224v13.152h-5.376V26.907h5.376v4.464
		C152.297,28.139,155.065,26.523,158.49,26.523z M150.089,39.723c0,2.433,0.735,4.424,2.208,5.976
		c1.472,1.553,3.264,2.328,5.376,2.328s3.952-0.768,5.521-2.304c1.567-1.536,2.352-3.528,2.352-5.976
		c0-2.448-0.768-4.48-2.304-6.096c-1.536-1.616-3.377-2.424-5.521-2.424c-2.145,0-3.952,0.808-5.424,2.424
		C150.825,35.267,150.089,37.292,150.089,39.723z"/>
	<path fill="#878787" d="M190.746,26.523c3.424,0,6.352,1.184,8.783,3.552c2.432,2.369,3.648,5.52,3.648,9.456
		s-1.208,7.136-3.624,9.6c-2.416,2.464-5.232,3.696-8.448,3.696s-6.104-1.408-8.664-4.224v13.152h-5.376V26.907h5.376v4.464
		C184.553,28.139,187.321,26.523,190.746,26.523z M182.345,39.723c0,2.433,0.735,4.424,2.208,5.976
		c1.472,1.553,3.264,2.328,5.376,2.328s3.952-0.768,5.521-2.304c1.567-1.536,2.352-3.528,2.352-5.976
		c0-2.448-0.768-4.48-2.304-6.096c-1.536-1.616-3.377-2.424-5.521-2.424c-2.145,0-3.952,0.808-5.424,2.424
		C183.081,35.267,182.345,37.292,182.345,39.723z"/>
	<path fill="#878787" d="M230.009,52.443h-4.896v-3.408c-2.111,2.528-4.943,3.792-8.496,3.792c-2.656,0-4.855-0.751-6.6-2.256
		c-1.744-1.504-2.616-3.511-2.616-6.024c0-2.512,0.928-4.392,2.784-5.64c1.855-1.248,4.368-1.872,7.536-1.872h6.96v-0.96
		c0-3.391-1.889-5.088-5.664-5.088c-2.368,0-4.832,0.864-7.392,2.592l-2.4-3.36c3.104-2.464,6.624-3.696,10.56-3.696
		c3.008,0,5.464,0.76,7.368,2.28c1.903,1.521,2.856,3.912,2.856,7.176V52.443z M224.633,42.939v-2.16h-6.048
		c-3.873,0-5.809,1.217-5.809,3.648c0,1.248,0.48,2.201,1.44,2.856c0.96,0.656,2.296,0.984,4.008,0.984s3.208-0.48,4.488-1.44
		C223.993,45.867,224.633,44.571,224.633,42.939z"/>
	<path fill="#E57912" d="M238.264,52.443V18.891h5.664v28.176h15.312v5.376H238.264z"/>
	<path fill="#E57912" d="M285.352,52.443h-4.896v-3.408c-2.111,2.528-4.943,3.792-8.496,3.792c-2.656,0-4.855-0.751-6.6-2.256
		c-1.744-1.504-2.615-3.511-2.615-6.024c0-2.512,0.928-4.392,2.783-5.64s4.369-1.872,7.537-1.872h6.959v-0.96
		c0-3.391-1.889-5.088-5.664-5.088c-2.367,0-4.832,0.864-7.391,2.592l-2.4-3.36c3.104-2.464,6.623-3.696,10.559-3.696
		c3.008,0,5.465,0.76,7.369,2.28c1.902,1.521,2.855,3.912,2.855,7.176V52.443z M279.977,42.939v-2.16h-6.049
		c-3.873,0-5.809,1.217-5.809,3.648c0,1.248,0.48,2.201,1.441,2.856c0.959,0.656,2.295,0.984,4.008,0.984
		c1.711,0,3.207-0.48,4.488-1.44C279.336,45.867,279.977,44.571,279.977,42.939z"/>
	<path fill="#E57912" d="M298.215,38.619v13.824h-5.375V26.907h5.375v4.656c0.77-1.567,1.928-2.8,3.48-3.696
		c1.553-0.896,3.225-1.344,5.016-1.344c4.033,0,6.77,1.664,8.209,4.992c2.527-3.328,5.68-4.992,9.455-4.992
		c2.881,0,5.209,0.88,6.984,2.64c1.775,1.76,2.664,4.304,2.664,7.632v15.648h-5.375V38.427c0-4.704-1.953-7.056-5.857-7.056
		c-1.824,0-3.416,0.584-4.775,1.752c-1.361,1.168-2.072,2.873-2.137,5.112v14.208h-5.375V38.427c0-2.431-0.432-4.216-1.297-5.352
		c-0.863-1.135-2.225-1.704-4.08-1.704s-3.473,0.616-4.848,1.848C298.904,34.451,298.215,36.251,298.215,38.619z"/>
	<path fill="#E57912" d="M355.191,26.523c3.424,0,6.352,1.184,8.783,3.552c2.432,2.369,3.648,5.52,3.648,9.456
		s-1.209,7.136-3.625,9.6c-2.416,2.464-5.232,3.696-8.447,3.696c-3.217,0-6.104-1.408-8.664-4.224v3.84h-5.377V16.827h5.377v14.544
		C348.998,28.139,351.766,26.523,355.191,26.523z M346.791,39.723c0,2.433,0.734,4.424,2.207,5.976
		c1.473,1.553,3.264,2.328,5.377,2.328c2.111,0,3.951-0.768,5.52-2.304c1.568-1.536,2.352-3.528,2.352-5.976
		c0-2.448-0.768-4.48-2.303-6.096c-1.537-1.616-3.377-2.424-5.521-2.424s-3.951,0.808-5.424,2.424
		C347.525,35.267,346.791,37.292,346.791,39.723z"/>
	<path fill="#E57912" d="M375.734,49.179c-2.4-2.431-3.6-5.631-3.6-9.6c0-3.968,1.23-7.136,3.695-9.504
		c2.465-2.368,5.4-3.552,8.809-3.552s6.15,1.44,8.232,4.32V16.827h5.375v35.616h-5.375v-3.84c-1.984,2.816-4.881,4.224-8.689,4.224
		C380.949,52.827,378.135,51.611,375.734,49.179z M377.51,39.795c0,2.448,0.785,4.44,2.354,5.976
		c1.566,1.536,3.406,2.304,5.52,2.304c2.111,0,3.904-0.775,5.375-2.328c1.473-1.552,2.209-3.544,2.209-5.976
		c0-2.432-0.736-4.464-2.209-6.096c-1.471-1.632-3.279-2.448-5.424-2.448s-3.984,0.816-5.52,2.448S377.51,37.347,377.51,39.795z"/>
	<path fill="#E57912" d="M426.711,52.443h-4.896v-3.408c-2.111,2.528-4.943,3.792-8.496,3.792c-2.656,0-4.855-0.751-6.6-2.256
		c-1.744-1.504-2.617-3.511-2.617-6.024c0-2.512,0.928-4.392,2.785-5.64c1.855-1.248,4.367-1.872,7.535-1.872h6.961v-0.96
		c0-3.391-1.889-5.088-5.664-5.088c-2.369,0-4.832,0.864-7.393,2.592l-2.4-3.36c3.104-2.464,6.625-3.696,10.561-3.696
		c3.008,0,5.463,0.76,7.367,2.28c1.904,1.521,2.857,3.912,2.857,7.176V52.443z M421.334,42.939v-2.16h-6.047
		c-3.873,0-5.809,1.217-5.809,3.648c0,1.248,0.48,2.201,1.439,2.856c0.961,0.656,2.297,0.984,4.008,0.984
		c1.713,0,3.209-0.48,4.488-1.44C420.693,45.867,421.334,44.571,421.334,42.939z"/>
</g>
</svg>
