<?xml version="1.0" encoding="utf-8"?>
<!-- Generator: Adobe Illustrator 16.0.4, SVG Export Plug-In . SVG Version: 6.00 Build 0)  -->
<!DOCTYPE svg PUBLIC "-//W3C//DTD SVG 1.0//EN" "http://www.w3.org/TR/2001/REC-SVG-20010904/DTD/svg10.dtd">
<svg version="1.0" id="Layer_1" xmlns="http://www.w3.org/2000/svg" xmlns:xlink="http://www.w3.org/1999/xlink" x="0px" y="0px"
	 width="372.895px" height="56px" viewBox="0 0 372.895 56" enable-background="new 0 0 372.895 56" xml:space="preserve">
<g>
	<path fill="#E57912" d="M10,45.616V12.064h5.664V40.24h15.312v5.376H10z"/>
	<path fill="#E57912" d="M41.776,45.616H36.4V10h5.376V45.616z"/>
	<path fill="#E57912" d="M70.24,45.616h-4.896v-3.408C63.231,44.736,60.399,46,56.848,46c-2.657,0-4.856-0.751-6.6-2.256
		c-1.745-1.504-2.616-3.511-2.616-6.024c0-2.512,0.928-4.392,2.784-5.64c1.855-1.248,4.368-1.872,7.536-1.872h6.96v-0.96
		c0-3.391-1.889-5.088-5.664-5.088c-2.369,0-4.832,0.864-7.392,2.592l-2.4-3.36c3.104-2.464,6.624-3.696,10.56-3.696
		c3.007,0,5.464,0.76,7.368,2.28c1.903,1.521,2.856,3.912,2.856,7.176V45.616z M64.864,36.112v-2.16h-6.048
		c-3.872,0-5.808,1.217-5.808,3.648c0,1.248,0.48,2.201,1.44,2.856c0.96,0.656,2.295,0.984,4.008,0.984
		c1.711,0,3.208-0.48,4.488-1.44C64.223,39.04,64.864,37.744,64.864,36.112z"/>
	<path fill="#E57912" d="M83.104,31.792v13.824h-5.376V20.08h5.376v4.656c0.768-1.567,1.927-2.8,3.48-3.696
		c1.552-0.896,3.223-1.344,5.016-1.344c4.032,0,6.768,1.664,8.208,4.992c2.528-3.328,5.68-4.992,9.456-4.992
		c2.88,0,5.208,0.88,6.984,2.64c1.776,1.76,2.664,4.304,2.664,7.632v15.648h-5.376V31.6c0-4.704-1.952-7.056-5.856-7.056
		c-1.824,0-3.416,0.584-4.776,1.752c-1.36,1.168-2.072,2.873-2.136,5.112v14.208h-5.376V31.6c0-2.431-0.432-4.216-1.296-5.352
		c-0.864-1.135-2.224-1.704-4.08-1.704s-3.472,0.616-4.848,1.848C83.791,27.625,83.104,29.424,83.104,31.792z"/>
	<path fill="#E57912" d="M140.079,19.696c3.424,0,6.352,1.184,8.784,3.552c2.432,2.369,3.648,5.52,3.648,9.456
		s-1.208,7.136-3.624,9.6c-2.417,2.464-5.232,3.696-8.448,3.696c-3.216,0-6.104-1.408-8.664-4.224v3.84h-5.376V10h5.376v14.544
		C133.887,21.312,136.655,19.696,140.079,19.696z M131.679,32.896c0,2.433,0.736,4.424,2.208,5.976
		c1.472,1.553,3.264,2.328,5.376,2.328s3.952-0.768,5.52-2.304c1.567-1.536,2.352-3.528,2.352-5.976c0-2.448-0.768-4.48-2.304-6.096
		c-1.536-1.616-3.376-2.424-5.52-2.424c-2.144,0-3.952,0.808-5.424,2.424C132.415,28.44,131.679,30.465,131.679,32.896z"/>
	<path fill="#E57912" d="M160.623,42.352c-2.4-2.431-3.6-5.631-3.6-9.6c0-3.968,1.231-7.136,3.696-9.504
		c2.463-2.368,5.4-3.552,8.808-3.552c3.408,0,6.152,1.44,8.232,4.32V10h5.376v35.616h-5.376v-3.84
		c-1.985,2.816-4.88,4.224-8.688,4.224C165.838,46,163.023,44.785,160.623,42.352z M162.399,32.968c0,2.448,0.784,4.44,2.352,5.976
		c1.567,1.536,3.408,2.304,5.52,2.304c2.112,0,3.904-0.775,5.376-2.328c1.472-1.552,2.208-3.544,2.208-5.976
		c0-2.432-0.736-4.464-2.208-6.096c-1.472-1.632-3.28-2.448-5.424-2.448c-2.145,0-3.984,0.816-5.52,2.448
		S162.399,30.52,162.399,32.968z"/>
	<path fill="#E57912" d="M211.599,45.616h-4.896v-3.408c-2.112,2.528-4.944,3.792-8.496,3.792c-2.657,0-4.856-0.751-6.6-2.256
		c-1.745-1.504-2.616-3.511-2.616-6.024c0-2.512,0.928-4.392,2.784-5.64c1.855-1.248,4.368-1.872,7.536-1.872h6.96v-0.96
		c0-3.391-1.889-5.088-5.664-5.088c-2.369,0-4.832,0.864-7.392,2.592l-2.4-3.36c3.104-2.464,6.624-3.696,10.56-3.696
		c3.007,0,5.464,0.76,7.368,2.28c1.903,1.521,2.856,3.912,2.856,7.176V45.616z M206.223,36.112v-2.16h-6.048
		c-3.872,0-5.808,1.217-5.808,3.648c0,1.248,0.48,2.201,1.44,2.856c0.96,0.656,2.295,0.984,4.008,0.984
		c1.711,0,3.208-0.48,4.488-1.44C205.583,39.04,206.223,37.744,206.223,36.112z"/>
	<path fill="#878787" d="M229.983,17.248v28.368h-5.664V17.248h-10.176v-5.184h26.016v5.184H229.983z"/>
	<path fill="#878787" d="M269.295,35.2h-20.018c0.129,1.856,0.977,3.353,2.545,4.488c1.566,1.136,3.359,1.704,5.375,1.704
		c3.201,0,5.633-1.008,7.297-3.024l3.072,3.36C264.814,44.577,261.23,46,256.814,46c-3.584,0-6.633-1.191-9.145-3.576
		c-2.512-2.384-3.768-5.584-3.768-9.6c0-4.016,1.279-7.208,3.84-9.576c2.559-2.368,5.576-3.552,9.047-3.552
		c3.473,0,6.424,1.048,8.857,3.144c2.432,2.096,3.648,4.984,3.648,8.664V35.2z M249.277,30.976h14.641
		c0-2.144-0.672-3.792-2.016-4.944s-3-1.728-4.969-1.728c-1.967,0-3.736,0.6-5.303,1.8
		C250.062,27.304,249.277,28.929,249.277,30.976z"/>
	<path fill="#878787" d="M293.391,37.984c0,2.432-0.881,4.376-2.641,5.832c-1.76,1.457-4.016,2.184-6.768,2.184
		c-1.857,0-3.785-0.336-5.785-1.008s-3.768-1.615-5.303-2.832l2.592-4.176c2.977,2.24,5.855,3.36,8.641,3.36
		c1.215,0,2.176-0.28,2.879-0.84c0.703-0.56,1.057-1.272,1.057-2.136c0-1.279-1.697-2.432-5.088-3.456
		c-0.258-0.096-0.449-0.16-0.576-0.192c-5.312-1.44-7.969-3.84-7.969-7.2c0-2.368,0.92-4.264,2.76-5.688
		c1.84-1.423,4.232-2.136,7.176-2.136c2.945,0,5.729,0.864,8.354,2.592l-2.018,3.984c-2.08-1.375-4.336-2.064-6.768-2.064
		c-1.279,0-2.32,0.233-3.119,0.696c-0.801,0.464-1.201,1.16-1.201,2.088c0,0.833,0.416,1.44,1.248,1.824
		c0.576,0.288,1.385,0.56,2.424,0.816c1.041,0.256,1.961,0.512,2.762,0.768c0.799,0.256,1.574,0.544,2.328,0.864
		c0.75,0.32,1.559,0.768,2.424,1.344C292.525,33.76,293.391,35.553,293.391,37.984z"/>
	<path fill="#878787" d="M306.109,24.4v12.96c0,1.216,0.32,2.184,0.961,2.904c0.639,0.72,1.535,1.08,2.688,1.08
		s2.256-0.56,3.312-1.68l2.207,3.792c-1.889,1.697-3.977,2.544-6.264,2.544s-4.24-0.792-5.855-2.376
		c-1.617-1.584-2.424-3.72-2.424-6.408V24.4h-3.217v-4.32h3.217v-8.016h5.375v8.016h6.721v4.32H306.109z"/>
	<path fill="#878787" d="M343.311,35.2h-20.018c0.129,1.856,0.977,3.353,2.545,4.488c1.566,1.136,3.359,1.704,5.375,1.704
		c3.201,0,5.633-1.008,7.297-3.024l3.072,3.36C338.83,44.577,335.246,46,330.83,46c-3.584,0-6.633-1.191-9.145-3.576
		c-2.512-2.384-3.768-5.584-3.768-9.6c0-4.016,1.279-7.208,3.84-9.576c2.559-2.368,5.576-3.552,9.047-3.552
		c3.473,0,6.424,1.048,8.857,3.144c2.432,2.096,3.648,4.984,3.648,8.664V35.2z M323.293,30.976h14.641
		c0-2.144-0.672-3.792-2.016-4.944s-3-1.728-4.969-1.728c-1.967,0-3.736,0.6-5.303,1.8
		C324.078,27.304,323.293,28.929,323.293,30.976z"/>
	<path fill="#878787" d="M362.605,25.12c-2.656,0-4.656,0.864-6,2.592s-2.016,4.048-2.016,6.96v10.944h-5.377V20.08h5.377v5.136
		c0.863-1.6,2.039-2.912,3.527-3.936c1.488-1.024,3.064-1.552,4.729-1.584l0.049,5.424C362.797,25.12,362.701,25.12,362.605,25.12z"
		/>
</g>
</svg>
